HIERARCHY
ROOT Hips
{
 OFFSET 0.000000 0.000000 0.000000
 CHANNELS 6 Xposition Yposition Zposition Yrotation Xrotation Zrotation
 JOINT Chest
 {
  OFFSET 0.000000 9.585900 0.002600
  CHANNELS 3 Yrotation Xrotation Zrotation
  JOINT Chest2
  {
   OFFSET 0.000000 9.601200 -0.005300
   CHANNELS 3 Yrotation Xrotation Zrotation
   JOINT Chest3
   {
    OFFSET 0.000000 9.561800 0.000000
    CHANNELS 3 Yrotation Xrotation Zrotation
    JOINT Chest4
    {
     OFFSET 0.000000 9.552100 0.000000
     CHANNELS 3 Yrotation Xrotation Zrotation
     JOINT Neck
     {
      OFFSET 0.000000 14.453000 0.000000
      CHANNELS 3 Yrotation Xrotation Zrotation
      JOINT Head
      {
       OFFSET 0.000000 8.936500 -0.011300
       CHANNELS 3 Yrotation Xrotation Zrotation
       End Site
       {
        OFFSET 0.000000 17.073600 -0.006000
       }
      }
     }
     JOINT RightCollar
     {
      OFFSET -2.921100 9.558500 0.000000
      CHANNELS 3 Yrotation Xrotation Zrotation
      JOINT RightShoulder
      {
       OFFSET -13.519700 0.000000 0.000000
       CHANNELS 3 Yrotation Xrotation Zrotation
       JOINT RightElbow
       {
        OFFSET 0.000000 -29.696600 0.000000
        CHANNELS 3 Yrotation Xrotation Zrotation
        JOINT RightWrist
        {
         OFFSET 0.000000 -24.004700 0.000000
         CHANNELS 3 Yrotation Xrotation Zrotation
         End Site
         {
          OFFSET 0.000000 -17.728500 0.000000
         }
        }
       }
      }
     }
     JOINT LeftCollar
     {
      OFFSET 2.921100 9.558500 0.000000
      CHANNELS 3 Yrotation Xrotation Zrotation
      JOINT LeftShoulder
      {
       OFFSET 13.519700 0.000000 0.000000
       CHANNELS 3 Yrotation Xrotation Zrotation
       JOINT LeftElbow
       {
        OFFSET 0.000000 -29.696600 0.000000
        CHANNELS 3 Yrotation Xrotation Zrotation
        JOINT LeftWrist
        {
         OFFSET 0.000000 -24.004700 0.000000
         CHANNELS 3 Yrotation Xrotation Zrotation
         End Site
         {
          OFFSET 0.000000 -17.728500 0.000000
         }
        }
       }
      }
     }
    }
   }
  }
 }
 JOINT RightHip
 {
  OFFSET -7.771700 -0.012900 -0.001300
  CHANNELS 3 Yrotation Xrotation Zrotation
  JOINT RightKnee
  {
   OFFSET 0.000000 -40.869800 0.001200
   CHANNELS 3 Yrotation Xrotation Zrotation
   JOINT RightAnkle
   {
    OFFSET 0.000000 -39.717900 0.002100
    CHANNELS 3 Yrotation Xrotation Zrotation
    JOINT RightToe
    {
     OFFSET 0.000000 -4.965400 11.033500
     CHANNELS 3 Yrotation Xrotation Zrotation
     End Site
     {
      OFFSET 0.000000 -1.423100 5.872300
     }
    }
   }
  }
 }
 JOINT LeftHip
 {
  OFFSET 7.771700 -0.012900 -0.001300
  CHANNELS 3 Yrotation Xrotation Zrotation
  JOINT LeftKnee
  {
   OFFSET 0.000000 -40.869800 0.001200
   CHANNELS 3 Yrotation Xrotation Zrotation
   JOINT LeftAnkle
   {
    OFFSET 0.000000 -39.717900 0.002100
    CHANNELS 3 Yrotation Xrotation Zrotation
    JOINT LeftToe
    {
     OFFSET 0.000000 -4.965400 11.033500
     CHANNELS 3 Yrotation Xrotation Zrotation
     End Site
     {
      OFFSET 0.000000 -1.423100 5.872300
     }
    }
   }
  }
 }
}
MOTION
Frames: 11
Frame Time: 0.008333
-11.879362 56.020896 20.358683 -176.095061 -29.773988 -9.031018 -2.423174 13.866124 6.067170 -1.193536 8.103623 2.423638 -1.566118 10.175070 2.985969 -1.248371 8.121617 2.410078 3.580235 28.217836 -3.362820 4.735600 5.681900 -4.543648 5.971009 -3.353879 -5.818601 4.206067 -12.672250 -5.623075 108.882394 -42.445342 -79.131514 14.140680 -9.772574 -41.602540 -12.459838 -1.937079 -4.311162 -8.784114 -21.754722 5.553906 -63.303741 -27.336165 47.563756 -0.571984 -11.172847 8.791813 -18.033467 -29.265513 5.088570 112.720502 88.691449 111.760203 2.634883 -27.236494 -3.225843 -0.105680 0.767003 -0.018477 -11.272505 -46.160921 8.799085 174.461453 73.765940 172.141733 -0.952936 -23.724860 0.969483 -0.405767 -2.472435 -0.186333
-11.893734 56.033526 20.357991 -176.089923 -29.735669 -9.028157 -2.459862 13.847853 6.050109 -1.220248 8.105855 2.417630 -1.588004 10.169073 2.985641 -1.267003 8.118017 2.407807 3.665791 28.219621 -3.390178 4.837828 5.692078 -4.594481 5.959003 -3.357996 -5.829454 4.207974 -12.723218 -5.553110 107.959405 -42.011560 -78.144949 14.123102 -9.714383 -41.246300 -12.413461 -1.923236 -4.313681 -8.807280 -21.603633 5.542330 -63.477846 -27.214907 47.865114 -0.630738 -10.883750 8.803828 -18.027421 -29.289483 5.076123 111.996343 88.714347 111.027441 2.643231 -27.231548 -3.198505 -0.110212 0.766528 -0.025111 -11.278319 -46.183013 8.798867 174.504177 73.792920 172.177417 -0.949984 -23.723548 0.977516 -0.399960 -2.466015 -0.183027
-11.905060 56.047167 20.355862 -176.084848 -29.710511 -9.039902 -2.494666 13.845992 6.050788 -1.245946 8.103919 2.407540 -1.598315 10.167800 2.996088 -1.283721 8.116270 2.408662 3.743315 28.206364 -3.424206 4.932457 5.682631 -4.650687 5.944304 -3.370029 -5.845767 4.202038 -12.795879 -5.480206 107.049513 -41.442047 -77.165772 14.123961 -9.665813 -40.990041 -12.411139 -1.905525 -4.314216 -8.845446 -21.479255 5.534143 -63.507888 -27.139015 48.098927 -0.611438 -10.586470 8.814178 -18.024445 -29.292163 5.083587 111.098334 88.740413 110.117337 2.641561 -27.227091 -3.174076 -0.109862 0.766691 -0.023933 -11.341089 -46.190565 8.846691 174.533930 73.808711 172.175139 -0.950725 -23.705875 0.979061 -0.399147 -2.479531 -0.181262
-11.922946 56.058067 20.356059 -176.062560 -29.670613 -9.014667 -2.561455 13.836101 6.009945 -1.257397 8.094285 2.403850 -1.584251 10.162537 2.997069 -1.326239 8.125585 2.427777 3.808481 28.186692 -3.467043 5.027327 5.656542 -4.708568 5.933760 -3.391353 -5.874432 4.183729 -12.886425 -5.404531 106.142187 -40.789415 -76.184641 14.121168 -9.608659 -40.766074 -12.464285 -1.895211 -4.289828 -8.923630 -21.372175 5.497836 -63.298368 -27.128522 48.235363 -0.557526 -10.290757 8.814059 -18.026517 -29.327522 5.046095 110.647568 88.748595 109.643338 2.630340 -27.229749 -3.146882 -0.105743 0.766174 -0.022381 -11.400996 -46.212254 8.857250 174.639448 73.837346 172.226468 -0.985884 -23.708749 0.979875 -0.362428 -2.464374 -0.157775
-11.938149 56.067709 20.358060 -176.053648 -29.625096 -8.993228 -2.609063 13.815665 5.986240 -1.271667 8.093761 2.403277 -1.617968 10.167114 3.011333 -1.328170 8.120517 2.425393 3.859663 28.173345 -3.518778 5.133072 5.619013 -4.759709 5.930797 -3.414096 -5.912174 4.163381 -12.990946 -5.326317 105.222426 -40.117966 -75.203206 14.089403 -9.508471 -40.466341 -12.475491 -1.908253 -4.271354 -9.168534 -21.235389 5.450318 -62.814472 -27.177821 48.281007 -0.510293 -10.001283 8.789225 -18.025063 -29.368276 5.033941 110.223480 88.765414 109.187603 2.618564 -27.232633 -3.113831 -0.106713 0.769310 -0.020928 -11.466738 -46.235546 8.882556 174.762919 73.874807 172.297320 -0.994979 -23.715893 0.975676 -0.344057 -2.436181 -0.145583
-11.950201 56.075297 20.363213 -176.050510 -29.563245 -8.982069 -2.654259 13.776268 5.976916 -1.329748 8.112386 2.419986 -1.611908 10.148557 3.002724 -1.293455 8.114091 2.402712 3.908834 28.156229 -3.527127 5.221508 5.595498 -4.799339 5.901005 -3.430053 -5.927812 4.140371 -13.107410 -5.242328 104.283755 -39.480861 -74.236097 14.014997 -9.322327 -39.964522 -12.493972 -1.917880 -4.234621 -9.523224 -21.091335 5.390792 -62.120247 -27.264860 48.238711 -0.475751 -9.714389 8.724481 -18.001386 -29.425888 5.022370 109.495276 88.771294 108.465473 2.603126 -27.233536 -3.093294 -0.105039 0.775228 -0.018357 -11.531951 -46.284124 8.925016 174.824548 73.894101 172.319313 -1.025866 -23.727829 0.975457 -0.319519 -2.410623 -0.132896
-11.959921 56.084786 20.364363 -176.064352 -29.535615 -8.974408 -2.680693 13.764975 5.978428 -1.344476 8.105924 2.422377 -1.630457 10.140589 3.005419 -1.325967 8.109273 2.414051 3.995605 28.153902 -3.564339 5.252860 5.598200 -4.822004 5.949534 -3.420702 -5.976414 4.090821 -13.232701 -5.142719 103.317873 -38.914969 -73.289651 13.893444 -9.030367 -39.161013 -12.450305 -1.923227 -4.225352 -9.838621 -20.983200 5.310857 -61.355530 -27.377630 48.083372 -0.441779 -9.426002 8.608048 -17.976208 -29.447463 5.018505 108.683235 88.774307 107.649379 2.589657 -27.226640 -3.076240 -0.103611 0.773189 -0.017895 -11.562568 -46.298402 8.956298 174.862895 73.912938 172.333177 -1.032364 -23.723260 0.975546 -0.315324 -2.405740 -0.131628
-11.965872 56.094991 20.363880 -176.093196 -29.524282 -8.979539 -2.689105 13.766168 6.001061 -1.347232 8.097178 2.420757 -1.658676 10.130054 3.013352 -1.358679 8.097529 2.424600 4.096483 28.133177 -3.558740 5.343523 5.612497 -4.866905 6.027314 -3.391039 -6.028605 3.991055 -13.364116 -5.021777 102.308938 -38.491529 -72.320227 13.738086 -8.651506 -38.064567 -12.398287 -1.924239 -4.213092 -9.991283 -20.930063 5.219510 -60.657185 -27.522360 47.799907 -0.400502 -9.136820 8.438609 -17.943502 -29.446792 5.033810 107.686181 88.782956 106.650082 2.581570 -27.218833 -3.058317 -0.104727 0.772686 -0.020932 -11.585923 -46.303952 8.988989 174.863693 73.922409 172.325825 -0.987706 -23.682431 0.966068 -0.346882 -2.438747 -0.148296
-11.979855 56.100978 20.367448 -176.097461 -29.482098 -8.943605 -2.733484 13.735533 5.973847 -1.328389 8.087925 2.410272 -1.706251 10.119022 3.035158 -1.373098 8.088900 2.427551 4.163270 28.121187 -3.555275 5.415258 5.623502 -4.901625 6.068658 -3.373960 -6.063167 3.878575 -13.490079 -4.902190 101.252622 -38.274657 -71.263984 13.571907 -8.257866 -36.852566 -12.356681 -1.936191 -4.190060 -9.936378 -20.937950 5.060732 -60.099665 -27.636614 47.419781 -0.346160 -8.870466 8.232393 -17.915478 -29.495942 4.995700 107.357186 88.784797 106.314555 2.576015 -27.228240 -3.049145 -0.105163 0.780798 -0.012445 -11.561807 -46.335391 8.938174 174.882182 73.950132 172.355682 -1.006901 -23.716213 0.952702 -0.309943 -2.393083 -0.136519
-11.986637 56.109029 20.368055 -176.108679 -29.461892 -8.945705 -2.752723 13.724952 5.995354 -1.348861 8.080988 2.406298 -1.716970 10.108301 3.049520 -1.361155 8.090683 2.403372 4.201039 28.100277 -3.528422 5.469607 5.618074 -4.923172 6.072490 -3.399262 -6.035568 3.755606 -13.592892 -4.830986 100.185453 -38.213233 -70.147339 13.399200 -7.953835 -35.758468 -12.339509 -1.964091 -4.140279 -9.738708 -20.966127 4.827460 -59.662012 -27.712426 47.012387 -0.305669 -8.660397 8.006452 -17.897125 -29.506766 4.988312 106.439396 88.780523 105.404830 2.574628 -27.225093 -3.047542 -0.105225 0.780885 -0.012659 -11.575739 -46.354364 8.945589 174.837603 73.953641 172.317838 -0.990832 -23.691720 0.944189 -0.318446 -2.412853 -0.147436
-11.991527 56.118723 20.365346 -176.133819 -29.465316 -8.949975 -2.751703 13.735529 6.031934 -1.401249 8.073382 2.440600 -1.701293 10.100253 3.027066 -1.355348 8.090256 2.371268 4.234974 28.075299 -3.494452 5.525023 5.592117 -4.939903 6.087827 -3.427197 -6.008143 3.604715 -13.701395 -4.777469 99.167567 -38.211009 -69.060295 13.233151 -7.808121 -34.929273 -12.319658 -2.002395 -4.090981 -9.505921 -20.962908 4.582955 -59.283195 -27.805637 46.642170 -0.332495 -8.509274 7.773951 -17.864210 -29.491790 4.982934 105.423930 88.778714 104.399620 2.573185 -27.221202 -3.046570 -0.105992 0.779717 -0.013743 -11.589052 -46.340275 8.973687 174.815572 73.963266 172.287248 -0.960260 -23.668705 0.944599 -0.348515 -2.433431 -0.166176
